<?xml version="1.0" standalone="no"?>
<!DOCTYPE svg PUBLIC "-//W3C//DTD SVG 1.1//EN" "http://www.w3.org/Graphics/SVG/1.1/DTD/svg11.dtd" >
<svg xmlns="http://www.w3.org/2000/svg">
<metadata>
This is a custom SVG webfont generated by Font Squirrel.
Copyright   : TIPO1  JCAMPOS V10
</metadata>
<defs>
<font id="RNSSERIALRegular" horiz-adv-x="1273" >
<font-face units-per-em="2048" ascent="1638" descent="-410" />
<missing-glyph horiz-adv-x="500" />
<glyph unicode=" " />
<glyph unicode="!" horiz-adv-x="512" d="M0 0v256h256v-256h-256zM0 512v768h256v-768h-256z" />
<glyph unicode="&#x22;" horiz-adv-x="1024" d="M0 768v512h256v-512h-256zM512 768v512h256v-512h-256z" />
<glyph unicode="#" horiz-adv-x="1024" d="M0 256v256h768v-256h-768zM0 768v256h768v-256h-768z" />
<glyph unicode="$" d="M0 0v254h633q55 0 93 39t38 92t-38 92t-93 39h-248q-162 0 -273.5 108.5t-111.5 270.5q0 158 112.5 271.5t272.5 113.5h633v-254h-633q-53 0 -92 -39t-39 -92t39 -92t92 -39h248q164 0 274.5 -108.5t110.5 -270.5q0 -158 -111.5 -271.5t-273.5 -113.5h-633zM256 0h256 v-256h-256v256zM512 1280v256h256v-256h-256z" />
<glyph unicode="'" horiz-adv-x="512" d="M0 512v256h256v-256h-256z" />
<glyph unicode="*" horiz-adv-x="1024" d="M0 512v256h256v256h-256v256h256v-256h256v256h256v-256h-256v-256h256v-256h-256v256h-256v-256h-256z" />
<glyph unicode="+" horiz-adv-x="1024" d="M0 512v256h256v256h256v-256h256v-256h-256v-256h-256v256h-256z" />
<glyph unicode="," horiz-adv-x="768" d="M0 0h256v256h256v-256h-256v-256h-256v256z" />
<glyph unicode="-" horiz-adv-x="1024" d="M0 512v256h768v-256h-768z" />
<glyph unicode="." horiz-adv-x="512" d="M0 0v256h256v-256h-256z" />
<glyph unicode="/" horiz-adv-x="2048" />
<glyph unicode="0" d="M0 385v510q0 158 113.5 271.5t271.5 113.5h248q160 0 272.5 -113.5t112.5 -271.5v-510q0 -158 -112.5 -271.5t-272.5 -113.5h-248q-158 0 -271.5 113.5t-113.5 271.5zM254 385q0 -53 39 -92t92 -39h248q53 0 92 39t39 92v510q0 53 -39 92t-92 39h-248q-53 0 -92 -39 t-39 -92v-510z" />
<glyph unicode="1" horiz-adv-x="765" d="M0 1026v254h131q152 0 265.5 -114.5t113.5 -270.5v-895h-256v895q0 53 -35 92t-88 39h-131z" />
<glyph unicode="2" d="M0 0h1018v254h-764v131q0 53 39 92t92 39h248q164 0 274.5 108.5t110.5 270.5q0 158 -111.5 271.5t-273.5 113.5h-633v-254h633q55 0 93 -39t38 -92t-38 -92t-93 -39h-248q-162 0 -273.5 -108.5t-111.5 -270.5v-385z" />
<glyph unicode="3" d="M0 0v254h633q55 0 93 39t38 92t-38 92t-93 39h-508v248h508q55 0 93 39t38 92t-38 92t-93 39h-633v254h633q162 0 273.5 -113.5t111.5 -271.5t-96 -256q96 -96 96 -254t-111.5 -271.5t-273.5 -113.5h-633z" />
<glyph unicode="4" d="M0 639v641h254v-641q0 -49 39 -86t92 -37h379v764h254v-1280h-254v254h-379q-160 0 -272.5 113.5t-112.5 271.5z" />
<glyph unicode="5" d="M0 0v254h633q55 0 93 39t38 92t-38 92t-93 39h-633v764h1018v-254h-764v-262h379q164 0 274.5 -108.5t110.5 -270.5q0 -158 -111.5 -271.5t-273.5 -113.5h-633z" />
<glyph unicode="6" d="M0 385v510q0 158 112.5 271.5t272.5 113.5h125v-254h-125q-53 0 -92 -39t-39 -92v-150q59 18 131 19h125v-248h-125q-53 0 -92 -39t-39 -92t39 -92t92 -39h125v-254h-125q-160 0 -272.5 113.5t-112.5 271.5zM510 0v254h123q55 0 93 39t38 92t-38 92t-93 39h-123v248h123 q164 0 274.5 -108.5t110.5 -270.5q0 -158 -111.5 -271.5t-273.5 -113.5h-123zM510 1026v254h508v-254h-508z" />
<glyph unicode="7" d="M0 1026v254h633q162 0 273.5 -113.5t111.5 -271.5v-895h-254v895q0 53 -38 92t-93 39h-633z" />
<glyph unicode="8" d="M0 385q0 -158 112.5 -271.5t272.5 -113.5h125v254h-125q-53 0 -92 39t-39 92t39 92t92 39h125v248h-125q-53 0 -92 39t-39 92t39 92t92 39h125v254h-125q-160 0 -272.5 -113.5t-112.5 -271.5t98 -256q-98 -96 -98 -254zM510 0h123q162 0 273.5 113.5t111.5 271.5t-96 254 q96 98 96 256t-111.5 271.5t-273.5 113.5h-123v-254h123q55 0 93 -39t38 -92t-38 -92t-93 -39h-123v-248h123q55 0 93 -39t38 -92t-38 -92t-93 -39h-123v-254z" />
<glyph unicode="9" d="M0 0v254h510v-254h-510zM0 895q0 158 112.5 271.5t272.5 113.5h125v-254h-125q-53 0 -92 -39t-39 -92t39 -92t92 -39h125v-248h-125q-162 0 -273.5 108.5t-111.5 270.5zM510 0v254h123q55 0 93 39t38 92v150q-59 -18 -131 -19h-123v248h123q55 0 93 39t38 92t-38 92 t-93 39h-123v254h123q162 0 273.5 -113.5t111.5 -271.5v-510q0 -158 -111.5 -271.5t-273.5 -113.5h-123z" />
<glyph unicode=":" horiz-adv-x="512" d="M0 0v256h256v-256h-256zM0 512v256h256v-256h-256z" />
<glyph unicode=";" horiz-adv-x="768" d="M0 0h256v256h256v-256h-256v-256h-256v256zM256 512v256h256v-256h-256z" />
<glyph unicode="=" horiz-adv-x="1024" d="M0 256v256h768v-256h-768zM0 768v256h768v-256h-768z" />
<glyph unicode="A" d="M0 0v895q0 158 113.5 271.5t271.5 113.5h248q160 0 272.5 -113.5t112.5 -271.5v-895h-254v254h-510v-254h-254zM254 516h510v379q0 53 -39 92t-92 39h-248q-53 0 -92 -39t-39 -92v-379z" />
<glyph unicode="B" d="M0 0v1280h633q162 0 273.5 -113.5t111.5 -271.5t-96 -256q96 -96 96 -254t-111.5 -271.5t-273.5 -113.5h-633zM254 254h379q55 0 93 39t38 92t-38 92t-93 39h-379v-262zM254 764h379q55 0 93 39t38 92t-38 92t-93 39h-379v-262z" />
<glyph unicode="C" d="M0 385v510q0 158 113.5 271.5t271.5 113.5h248q160 0 272.5 -113.5t112.5 -271.5h-254q0 53 -39 92t-92 39h-248q-53 0 -92 -39t-39 -92v-510q0 -53 39 -92t92 -39h248q53 0 92 39t39 92h254q0 -158 -112.5 -271.5t-272.5 -113.5h-248q-158 0 -271.5 113.5t-113.5 271.5z " />
<glyph unicode="D" d="M0 0v1280h633q162 0 273.5 -113.5t111.5 -271.5v-510q0 -158 -111.5 -271.5t-273.5 -113.5h-633zM254 254h379q55 0 93 39t38 92v510q0 53 -38 92t-93 39h-379v-772z" />
<glyph unicode="E" d="M0 385v510q0 158 112.5 271.5t272.5 113.5h633v-254h-633q-53 0 -92 -39t-39 -92v-131h641v-248h-641v-131q0 -53 39 -92t92 -39h633v-254h-633q-160 0 -272.5 113.5t-112.5 271.5z" />
<glyph unicode="F" d="M0 0v895q0 158 112.5 271.5t272.5 113.5h633v-254h-633q-53 0 -92 -39t-39 -92v-131h510v-248h-510v-516h-254z" />
<glyph unicode="G" d="M0 385v510q0 158 112.5 271.5t272.5 113.5h633v-254h-633q-53 0 -92 -39t-39 -92v-510q0 -53 39 -92t92 -39h248q55 0 93 39t38 92v131h-254v248h508v-379q0 -158 -111.5 -271.5t-273.5 -113.5h-248q-160 0 -272.5 113.5t-112.5 271.5z" />
<glyph unicode="H" d="M0 0v1280h254v-516h510v516h254v-1280h-254v516h-510v-516h-254z" />
<glyph unicode="I" horiz-adv-x="1026" d="M0 0v254h262v772h-262v254h770v-254h-260v-772h260v-254h-770z" />
<glyph unicode="J" d="M0 0v254h633q53 0 92 39t39 92v641h-510v254h764v-895q0 -158 -112.5 -271.5t-272.5 -113.5h-633z" />
<glyph unicode="K" d="M0 0v1280h254v-516h379q55 0 93 39t38 92v385h254v-385q0 -158 -96 -256q96 -96 96 -254v-385h-254v385q0 53 -38 92t-93 39h-379v-516h-254z" />
<glyph unicode="L" horiz-adv-x="1026" d="M0 385v895h262v-895q0 -53 37 -92t86 -39h385v-254h-385q-156 0 -270.5 114.5t-114.5 270.5z" />
<glyph unicode="M" horiz-adv-x="1536" d="M0 0v895q0 156 114.5 270.5t270.5 114.5q145 0 254 -98q111 98 256 98q156 0 270.5 -114.5t114.5 -270.5v-895h-254v895q0 53 -39 92t-92 39t-92 -39t-39 -92v-895h-248v895q0 53 -39 92t-92 39t-92 -39t-39 -92v-895h-254z" />
<glyph unicode="N" d="M0 0v895q0 158 113.5 271.5t271.5 113.5h248q160 0 272.5 -113.5t112.5 -271.5v-895h-254v895q0 53 -39 92t-92 39h-248q-53 0 -92 -39t-39 -92v-895h-254z" />
<glyph unicode="O" d="M0 385v510q0 158 113.5 271.5t271.5 113.5h248q160 0 272.5 -113.5t112.5 -271.5v-510q0 -158 -112.5 -271.5t-272.5 -113.5h-248q-158 0 -271.5 113.5t-113.5 271.5zM254 385q0 -53 39 -92t92 -39h248q53 0 92 39t39 92v510q0 53 -39 92t-92 39h-248q-53 0 -92 -39 t-39 -92v-510z" />
<glyph unicode="P" d="M0 0v895q0 158 113.5 271.5t271.5 113.5h248q160 0 272.5 -113.5t112.5 -271.5v-256q0 -158 -112.5 -271.5t-272.5 -113.5h-248q-55 0 -131 27v-281h-254zM254 639q0 -49 40 -86t91 -37h248q51 0 91 37t40 86v256q0 53 -39 92t-92 39h-248q-53 0 -92 -39t-39 -92v-256z " />
<glyph unicode="Q" d="M0 383q0 -158 113.5 -271.5t271.5 -113.5h248q55 0 131 27v-537h254v1407q0 158 -112.5 271.5t-272.5 113.5h-248q-158 0 -271.5 -113.5t-113.5 -271.5v-512zM254 383v512q0 53 39 92t92 39h248q53 0 92 -39t39 -92v-512q0 -49 -40 -86t-91 -37h-248q-51 0 -91 37t-40 86 z" />
<glyph unicode="R" d="M0 0v895q0 158 113.5 271.5t271.5 113.5h248q160 0 272.5 -113.5t112.5 -271.5v-256q0 -145 -96 -254q96 -98 96 -254v-131h-254q0 137 -8 166q-23 88 -123 88h-379v-254h-254zM254 516h379q51 0 91 37t40 86v256q0 53 -39 92t-92 39h-248q-53 0 -92 -39t-39 -92v-379z " />
<glyph unicode="S" d="M0 0v254h633q55 0 93 39t38 92t-38 92t-93 39h-248q-162 0 -273.5 108.5t-111.5 270.5q0 158 112.5 271.5t272.5 113.5h633v-254h-633q-53 0 -92 -39t-39 -92t39 -92t92 -39h248q164 0 274.5 -108.5t110.5 -270.5q0 -158 -111.5 -271.5t-273.5 -113.5h-633z" />
<glyph unicode="T" d="M0 1026v254h1018v-254h-385v-1026h-248v1026h-385z" />
<glyph unicode="U" d="M0 385v895h254v-895q0 -53 39 -92t92 -39h248q53 0 92 39t39 92v895h254v-895q0 -158 -112.5 -271.5t-272.5 -113.5h-248q-158 0 -271.5 113.5t-113.5 271.5z" />
<glyph unicode="V" d="M0 0v1280h254v-1026h379q53 0 92 39t39 92v895h254v-895q0 -158 -112.5 -271.5t-272.5 -113.5h-633z" />
<glyph unicode="W" horiz-adv-x="1536" d="M0 385v895h254v-895q0 -53 39 -92t92 -39t92 39t39 92v895h248v-895q0 -53 39 -92t92 -39t92 39t39 92v895h254v-895q0 -156 -114.5 -270.5t-270.5 -114.5q-145 0 -256 98q-109 -98 -254 -98q-156 0 -270.5 114.5t-114.5 270.5z" />
<glyph unicode="X" d="M0 0v385q0 158 98 254q-98 98 -98 256v385h254v-385q0 -53 39 -92t92 -39h248q55 0 93 39t38 92v385h254v-385q0 -158 -96 -256q96 -96 96 -254v-385h-254v385q0 53 -38 92t-93 39h-248q-53 0 -92 -39t-39 -92v-385h-254z" />
<glyph unicode="Y" d="M0 895v385h254v-385q0 -53 39 -92t92 -39h248q55 0 93 39t38 92v385h254v-385q0 -162 -110.5 -270.5t-274.5 -108.5v-516h-248v516q-162 0 -273.5 108.5t-111.5 270.5z" />
<glyph unicode="Z" d="M0 0v385q0 162 111.5 270.5t273.5 108.5h248q55 0 93 39t38 92v131h-764v254h1018v-385q0 -162 -110.5 -270.5t-274.5 -108.5h-248q-53 0 -92 -39t-39 -92v-131h764v-254h-1018z" />
<glyph unicode="[" horiz-adv-x="768" d="M0 -256v1792h512v-256h-256v-1280h256v-256h-512z" />
<glyph unicode="]" horiz-adv-x="768" d="M0 0v-256h512v1792h-512v-256h256v-1280h-256z" />
<glyph unicode="_" horiz-adv-x="1024" d="M0 0h768v-256h-768v256z" />
<glyph unicode="a" d="M0 385q0 162 111.5 270.5t273.5 108.5h125v-248h-125q-53 0 -92 -39t-39 -92t39 -92t92 -39h125v-254h-125q-160 0 -272.5 113.5t-112.5 271.5zM0 1026v254h510v-254h-510zM510 0v254h254v262h-254v248h254v131q0 53 -38 92t-93 39h-123v254h123q162 0 273.5 -113.5 t111.5 -271.5v-895h-508z" />
<glyph unicode="b" horiz-adv-x="1275" d="M0 385v1407h256v-537q76 27 129 27h250q158 0 271.5 -114.5t113.5 -272.5v-510q0 -160 -112.5 -272.5t-272.5 -112.5h-250q-160 0 -272.5 112.5t-112.5 272.5zM256 895v-510q0 -53 38 -91t91 -38h250q53 0 92 38t39 91v510q0 51 -40 88t-91 37h-250q-51 0 -90 -37 t-39 -88z" />
<glyph unicode="c" d="M0 385v510q0 158 113.5 271.5t271.5 113.5h248q160 0 272.5 -113.5t112.5 -271.5h-254q0 53 -39 92t-92 39h-248q-53 0 -92 -39t-39 -92v-510q0 -53 39 -92t92 -39h248q53 0 92 39t39 92h254q0 -158 -112.5 -271.5t-272.5 -113.5h-248q-158 0 -271.5 113.5t-113.5 271.5z " />
<glyph unicode="d" horiz-adv-x="1275" d="M0 385q0 -160 112.5 -272.5t272.5 -112.5h250q160 0 272.5 112.5t112.5 272.5v1407h-254v-537q-78 27 -131 27h-250q-156 0 -270.5 -114.5t-114.5 -272.5v-510zM256 385v510q0 51 39 88t90 37h250q51 0 91 -37t40 -88v-510q0 -53 -39 -91t-92 -38h-250q-53 0 -91 38 t-38 91z" />
<glyph unicode="e" d="M0 385v510q0 158 112.5 271.5t272.5 113.5h248q162 0 273.5 -113.5t111.5 -271.5v-379h-764v-131q0 -53 39 -92t92 -39h633v-254h-633q-160 0 -272.5 113.5t-112.5 271.5zM254 764h510v131q0 53 -38 92t-93 39h-248q-53 0 -92 -39t-39 -92v-131z" />
<glyph unicode="f" horiz-adv-x="1028" d="M0 1020v262h131v125q0 160 112.5 272.5t266.5 112.5h262v-256h-262q-53 0 -89 -38t-36 -91v-125h387v-262h-387v-1020h-254v1020h-131z" />
<glyph unicode="g" horiz-adv-x="1275" d="M0 -256h635q53 0 92 38t39 91t-39 89t-92 36h-250q-160 0 -272.5 113.5t-112.5 271.5v512q0 162 111.5 273.5t273.5 111.5h250q162 0 273.5 -111.5t111.5 -273.5v-512q0 -145 -98 -254q98 -98 98 -256q0 -162 -111.5 -273.5t-273.5 -111.5h-635v256zM256 383 q0 -49 38 -86t91 -37h250q53 0 92 37t39 86v512q0 53 -39 91t-92 38h-250q-53 0 -91 -38t-38 -91v-512z" />
<glyph unicode="h" horiz-adv-x="1275" d="M0 0v1792h256v-537q76 27 129 27h250q158 0 271.5 -114.5t113.5 -272.5v-895h-254v895q0 51 -40 88t-91 37h-250q-51 0 -90 -37t-39 -88v-895h-256z" />
<glyph unicode="i" horiz-adv-x="634" d="M0 385v897h248v-897q0 -53 39 -91t92 -38v-256q-158 0 -268.5 112.5t-110.5 272.5zM0 1536v256h248v-256h-248z" />
<glyph unicode="j" horiz-adv-x="763" d="M0 -258h131q53 0 88 38t35 93v1147h254v-1147q0 -156 -112.5 -270.5t-264.5 -114.5h-131v254zM254 1282v254h254v-254h-254z" />
<glyph unicode="k" horiz-adv-x="1275" d="M0 0v1792h256v-1020h379q53 0 92 37t39 86v387h254v-387q0 -145 -98 -254q98 -98 98 -256v-385h-254v385q0 53 -39 89t-92 36h-379v-510h-256z" />
<glyph unicode="l" horiz-adv-x="765" d="M0 385v1407h256v-1407q0 -53 35 -91t88 -38h131v-256h-131q-154 0 -266.5 112.5t-112.5 272.5z" />
<glyph unicode="m" horiz-adv-x="1536" d="M0 0v895q0 156 114.5 270.5t270.5 114.5q145 0 254 -98q111 98 256 98q156 0 270.5 -114.5t114.5 -270.5v-895h-254v895q0 53 -39 92t-92 39t-92 -39t-39 -92v-895h-248v895q0 53 -39 92t-92 39t-92 -39t-39 -92v-895h-254z" />
<glyph unicode="n" d="M0 0v895q0 158 113.5 271.5t271.5 113.5h248q160 0 272.5 -113.5t112.5 -271.5v-895h-254v895q0 53 -39 92t-92 39h-248q-53 0 -92 -39t-39 -92v-895h-254z" />
<glyph unicode="o" d="M0 385v510q0 158 113.5 271.5t271.5 113.5h248q160 0 272.5 -113.5t112.5 -271.5v-510q0 -158 -112.5 -271.5t-272.5 -113.5h-248q-158 0 -271.5 113.5t-113.5 271.5zM254 385q0 -53 39 -92t92 -39h248q53 0 92 39t39 92v510q0 53 -39 92t-92 39h-248q-53 0 -92 -39 t-39 -92v-510z" />
<glyph unicode="p" d="M0 -512v1407q0 158 113.5 271.5t271.5 113.5h248q160 0 272.5 -113.5t112.5 -271.5v-512q0 -158 -112.5 -271.5t-272.5 -113.5h-248q-55 0 -131 27v-537h-254zM254 383q0 -49 40 -86t91 -37h248q51 0 91 37t40 86v512q0 53 -39 92t-92 39h-248q-53 0 -92 -39t-39 -92 v-512z" />
<glyph unicode="q" d="M0 383q0 -158 113.5 -271.5t271.5 -113.5h248q55 0 131 27v-537h254v1407q0 158 -112.5 271.5t-272.5 113.5h-248q-158 0 -271.5 -113.5t-113.5 -271.5v-512zM254 383v512q0 53 39 92t92 39h248q53 0 92 -39t39 -92v-512q0 -49 -40 -86t-91 -37h-248q-51 0 -91 37t-40 86 z" />
<glyph unicode="r" d="M0 0v895q0 158 113.5 271.5t271.5 113.5h248q160 0 272.5 -113.5t112.5 -271.5v-131h-254q0 135 -8 168q-25 94 -123 94h-248q-53 0 -92 -39t-39 -92v-895h-254z" />
<glyph unicode="s" d="M0 0v254h633q55 0 93 39t38 92t-38 92t-93 39h-248q-162 0 -273.5 108.5t-111.5 270.5q0 158 112.5 271.5t272.5 113.5h633v-254h-633q-53 0 -92 -39t-39 -92t39 -92t92 -39h248q164 0 274.5 -108.5t110.5 -270.5q0 -158 -111.5 -271.5t-273.5 -113.5h-633z" />
<glyph unicode="t" horiz-adv-x="1024" d="M0 1022h131v-639q0 -156 112.5 -269.5t264.5 -113.5h260v260h-260q-53 0 -89 37t-36 86v639h385v254h-385v260h-252v-260h-131v-254z" />
<glyph unicode="u" d="M0 385v895h254v-895q0 -53 39 -92t92 -39h248q53 0 92 39t39 92v895h254v-895q0 -158 -112.5 -271.5t-272.5 -113.5h-248q-158 0 -271.5 113.5t-113.5 271.5z" />
<glyph unicode="v" d="M0 0v1280h254v-1026h379q53 0 92 39t39 92v895h254v-895q0 -158 -112.5 -271.5t-272.5 -113.5h-633z" />
<glyph unicode="w" horiz-adv-x="1536" d="M0 385v895h254v-895q0 -53 39 -92t92 -39t92 39t39 92v895h248v-895q0 -53 39 -92t92 -39t92 39t39 92v895h254v-895q0 -156 -114.5 -270.5t-270.5 -114.5q-145 0 -256 98q-109 -98 -254 -98q-156 0 -270.5 114.5t-114.5 270.5z" />
<glyph unicode="x" d="M0 0v385q0 158 98 254q-98 98 -98 256v385h254v-385q0 -53 39 -92t92 -39h248q55 0 93 39t38 92v385h254v-385q0 -158 -96 -256q96 -96 96 -254v-385h-254v385q0 53 -38 92t-93 39h-248q-53 0 -92 -39t-39 -92v-385h-254z" />
<glyph unicode="y" d="M0 895v385h254v-385q0 -53 39 -92t92 -39h248q55 0 93 39t38 92v385h254v-385q0 -162 -110.5 -270.5t-274.5 -108.5v-516h-248v516q-162 0 -273.5 108.5t-111.5 270.5z" />
<glyph unicode="z" d="M0 0v385q0 162 111.5 270.5t273.5 108.5h248q55 0 93 39t38 92v131h-764v254h1018v-385q0 -162 -110.5 -270.5t-274.5 -108.5h-248q-53 0 -92 -39t-39 -92v-131h764v-254h-1018z" />
<glyph unicode="|" horiz-adv-x="512" d="M0 -256v1792h256v-1792h-256z" />
<glyph unicode="&#xa0;" />
<glyph unicode="&#xaa;" d="M0 385q0 162 111.5 270.5t273.5 108.5h125v-248h-125q-53 0 -92 -39t-39 -92t39 -92t92 -39h125v-254h-125q-160 0 -272.5 113.5t-112.5 271.5zM0 1026v254h510v-254h-510zM510 0v254h254v262h-254v248h254v131q0 53 -38 92t-93 39h-123v254h123q162 0 273.5 -113.5 t111.5 -271.5v-895h-508z" />
<glyph unicode="&#xad;" horiz-adv-x="1024" d="M0 512v256h768v-256h-768z" />
<glyph unicode="&#xb2;" d="M0 0h1018v254h-764v131q0 53 39 92t92 39h248q164 0 274.5 108.5t110.5 270.5q0 158 -111.5 271.5t-273.5 113.5h-633v-254h633q55 0 93 -39t38 -92t-38 -92t-93 -39h-248q-162 0 -273.5 -108.5t-111.5 -270.5v-385z" />
<glyph unicode="&#xb3;" d="M0 0v254h633q55 0 93 39t38 92t-38 92t-93 39h-508v248h508q55 0 93 39t38 92t-38 92t-93 39h-633v254h633q162 0 273.5 -113.5t111.5 -271.5t-96 -256q96 -96 96 -254t-111.5 -271.5t-273.5 -113.5h-633z" />
<glyph unicode="&#xb9;" horiz-adv-x="765" d="M0 1026v254h131q152 0 265.5 -114.5t113.5 -270.5v-895h-256v895q0 53 -35 92t-88 39h-131z" />
<glyph unicode="&#xba;" d="M0 385v510q0 158 113.5 271.5t271.5 113.5h248q160 0 272.5 -113.5t112.5 -271.5v-510q0 -158 -112.5 -271.5t-272.5 -113.5h-248q-158 0 -271.5 113.5t-113.5 271.5zM254 385q0 -53 39 -92t92 -39h248q53 0 92 39t39 92v510q0 53 -39 92t-92 39h-248q-53 0 -92 -39 t-39 -92v-510z" />
<glyph unicode="&#xc1;" d="M0 0v895q0 158 113.5 271.5t271.5 113.5h248q160 0 272.5 -113.5t112.5 -271.5v-895h-254v254h-510v-254h-254zM254 516h510v379q0 53 -39 92t-92 39h-248q-53 0 -92 -39t-39 -92v-379zM768 1536v256h256v-256h-256z" />
<glyph unicode="&#xc9;" d="M0 385v510q0 158 112.5 271.5t272.5 113.5h633v-254h-633q-53 0 -92 -39t-39 -92v-131h641v-248h-641v-131q0 -53 39 -92t92 -39h633v-254h-633q-160 0 -272.5 113.5t-112.5 271.5zM768 1536v256h256v-256h-256z" />
<glyph unicode="&#xcd;" horiz-adv-x="1026" d="M0 0v254h262v772h-262v254h770v-254h-260v-772h260v-254h-770zM512 1536v256h256v-256h-256z" />
<glyph unicode="&#xd1;" d="M0 0v895q0 158 113.5 271.5t271.5 113.5h248q160 0 272.5 -113.5t112.5 -271.5v-895h-254v895q0 53 -39 92t-92 39h-248q-53 0 -92 -39t-39 -92v-895h-254zM768 1536v256h256v-256h-256z" />
<glyph unicode="&#xd3;" d="M0 385v510q0 158 113.5 271.5t271.5 113.5h248q160 0 272.5 -113.5t112.5 -271.5v-510q0 -158 -112.5 -271.5t-272.5 -113.5h-248q-158 0 -271.5 113.5t-113.5 271.5zM254 385q0 -53 39 -92t92 -39h248q53 0 92 39t39 92v510q0 53 -39 92t-92 39h-248q-53 0 -92 -39 t-39 -92v-510zM768 1536v256h256v-256h-256z" />
<glyph unicode="&#xda;" d="M0 385v895h254v-895q0 -53 39 -92t92 -39h248q53 0 92 39t39 92v895h254v-895q0 -158 -112.5 -271.5t-272.5 -113.5h-248q-158 0 -271.5 113.5t-113.5 271.5zM768 1536v256h256v-256h-256z" />
<glyph unicode="&#xdc;" d="M0 385v895h254v-895q0 -53 39 -92t92 -39h248q53 0 92 39t39 92v895h254v-895q0 -158 -112.5 -271.5t-272.5 -113.5h-248q-158 0 -271.5 113.5t-113.5 271.5zM0 1536v256h256v-256h-256zM768 1536v256h256v-256h-256z" />
<glyph unicode="&#xe1;" d="M0 385q0 162 111.5 270.5t273.5 108.5h125v-248h-125q-53 0 -92 -39t-39 -92t39 -92t92 -39h125v-254h-125q-160 0 -272.5 113.5t-112.5 271.5zM0 1026v254h510v-254h-510zM510 0v254h254v262h-254v248h254v131q0 53 -38 92t-93 39h-123v254h123q162 0 273.5 -113.5 t111.5 -271.5v-895h-508zM768 1536v256h256v-256h-256z" />
<glyph unicode="&#xe9;" d="M0 385v510q0 158 112.5 271.5t272.5 113.5h248q162 0 273.5 -113.5t111.5 -271.5v-379h-764v-131q0 -53 39 -92t92 -39h633v-254h-633q-160 0 -272.5 113.5t-112.5 271.5zM254 764h510v131q0 53 -38 92t-93 39h-248q-53 0 -92 -39t-39 -92v-131zM768 1536v256h256v-256 h-256z" />
<glyph unicode="&#xed;" horiz-adv-x="634" d="M0 385v897h248v-897q0 -53 39 -91t92 -38v-256q-158 0 -268.5 112.5t-110.5 272.5zM0 1536v512h248v-512h-248z" />
<glyph unicode="&#xf1;" d="M0 0v895q0 158 113.5 271.5t271.5 113.5h248q160 0 272.5 -113.5t112.5 -271.5v-895h-254v895q0 53 -39 92t-92 39h-248q-53 0 -92 -39t-39 -92v-895h-254zM768 1536v256h256v-256h-256z" />
<glyph unicode="&#xf3;" d="M0 385v510q0 158 113.5 271.5t271.5 113.5h248q160 0 272.5 -113.5t112.5 -271.5v-510q0 -158 -112.5 -271.5t-272.5 -113.5h-248q-158 0 -271.5 113.5t-113.5 271.5zM254 385q0 -53 39 -92t92 -39h248q53 0 92 39t39 92v510q0 53 -39 92t-92 39h-248q-53 0 -92 -39 t-39 -92v-510zM768 1536v256h256v-256h-256z" />
<glyph unicode="&#xfa;" d="M0 385v895h254v-895q0 -53 39 -92t92 -39h248q53 0 92 39t39 92v895h254v-895q0 -158 -112.5 -271.5t-272.5 -113.5h-248q-158 0 -271.5 113.5t-113.5 271.5zM768 1536v256h256v-256h-256z" />
<glyph unicode="&#xfc;" d="M0 385v895h254v-895q0 -53 39 -92t92 -39h248q53 0 92 39t39 92v895h254v-895q0 -158 -112.5 -271.5t-272.5 -113.5h-248q-158 0 -271.5 113.5t-113.5 271.5zM0 1536v256h256v-256h-256zM768 1536v256h256v-256h-256z" />
<glyph unicode="&#x152;" horiz-adv-x="2547" d="M0 385v510q0 158 113.5 271.5t271.5 113.5h248q160 0 272.5 -113.5t112.5 -271.5v-510q0 -158 -112.5 -271.5t-272.5 -113.5h-248q-158 0 -271.5 113.5t-113.5 271.5zM254 385q0 -53 39 -92t92 -39h248q53 0 92 39t39 92v510q0 53 -39 92t-92 39h-248q-53 0 -92 -39 t-39 -92v-510zM1274 385v510q0 158 112.5 271.5t272.5 113.5h633v-254h-633q-53 0 -92 -39t-39 -92v-131h641v-248h-641v-131q0 -53 39 -92t92 -39h633v-254h-633q-160 0 -272.5 113.5t-112.5 271.5z" />
<glyph unicode="&#x153;" horiz-adv-x="2547" d="M0 385v510q0 158 113.5 271.5t271.5 113.5h248q160 0 272.5 -113.5t112.5 -271.5v-510q0 -158 -112.5 -271.5t-272.5 -113.5h-248q-158 0 -271.5 113.5t-113.5 271.5zM254 385q0 -53 39 -92t92 -39h248q53 0 92 39t39 92v510q0 53 -39 92t-92 39h-248q-53 0 -92 -39 t-39 -92v-510zM1274 385v510q0 158 112.5 271.5t272.5 113.5h248q162 0 273.5 -113.5t111.5 -271.5v-379h-764v-131q0 -53 39 -92t92 -39h633v-254h-633q-160 0 -272.5 113.5t-112.5 271.5zM1528 764h510v131q0 53 -38 92t-93 39h-248q-53 0 -92 -39t-39 -92v-131z" />
<glyph unicode="&#x2013;" horiz-adv-x="1024" d="M205 512v205h614v-205h-614z" />
<glyph unicode="&#x2014;" horiz-adv-x="2048" d="M205 512v205h1638v-205h-1638z" />
<glyph unicode="&#x2019;" horiz-adv-x="512" d="M0 512v256h256v-256h-256z" />
<glyph unicode="&#x201c;" horiz-adv-x="1024" d="M0 768v512h256v-512h-256zM512 768v512h256v-512h-256z" />
<glyph unicode="&#x201d;" horiz-adv-x="1024" d="M0 768v512h256v-512h-256zM512 768v512h256v-512h-256z" />
<glyph unicode="&#x2026;" horiz-adv-x="1536" d="M0 0v256h256v-256h-256zM512 0v256h256v-256h-256zM1024 0v256h256v-256h-256z" />
<glyph unicode="&#x2122;" horiz-adv-x="2809" d="M0 1026v254h1018v-254h-385v-1026h-248v1026h-385zM1274 0v895q0 156 114.5 270.5t270.5 114.5q145 0 254 -98q111 98 256 98q156 0 270.5 -114.5t114.5 -270.5v-895h-254v895q0 53 -39 92t-92 39t-92 -39t-39 -92v-895h-248v895q0 53 -39 92t-92 39t-92 -39t-39 -92 v-895h-254z" />
<glyph unicode="&#xe000;" horiz-adv-x="1280" d="M0 1280h1280v-1280h-1280v1280z" />
<glyph unicode="&#xfb01;" horiz-adv-x="1662" d="M0 1020v262h131v125q0 160 112.5 272.5t266.5 112.5h262v-256h-262q-53 0 -89 -38t-36 -91v-125h387v-262h-387v-1020h-254v1020h-131zM1028 385v897h248v-897q0 -53 39 -91t92 -38v-256q-158 0 -268.5 112.5t-110.5 272.5zM1028 1536v256h248v-256h-248z" />
<glyph unicode="&#xfb02;" horiz-adv-x="1794" d="M0 1020v262h131v125q0 160 112.5 272.5t266.5 112.5h262v-256h-262q-53 0 -89 -38t-36 -91v-125h387v-262h-387v-1020h-254v1020h-131zM1028 385v1407h256v-1407q0 -53 35 -91t88 -38h131v-256h-131q-154 0 -266.5 112.5t-112.5 272.5z" />
<glyph unicode="&#xfb03;" horiz-adv-x="2691" d="M0 1020v262h131v125q0 160 112.5 272.5t266.5 112.5h262v-256h-262q-53 0 -89 -38t-36 -91v-125h387v-262h-387v-1020h-254v1020h-131zM1028 1020v262h131v125q0 160 112.5 272.5t266.5 112.5h262v-256h-262q-53 0 -89 -38t-36 -91v-125h387v-262h-387v-1020h-254v1020 h-131zM2056 385v897h248v-897q0 -53 39 -91t92 -38v-256q-158 0 -268.5 112.5t-110.5 272.5zM2056 1536v256h248v-256h-248z" />
<glyph unicode="&#xfb04;" horiz-adv-x="2822" d="M0 1020v262h131v125q0 160 112.5 272.5t266.5 112.5h262v-256h-262q-53 0 -89 -38t-36 -91v-125h387v-262h-387v-1020h-254v1020h-131zM1028 1020v262h131v125q0 160 112.5 272.5t266.5 112.5h262v-256h-262q-53 0 -89 -38t-36 -91v-125h387v-262h-387v-1020h-254v1020 h-131zM2056 385v1407h256v-1407q0 -53 35 -91t88 -38h131v-256h-131q-154 0 -266.5 112.5t-112.5 272.5z" />
</font>
</defs>
</svg>
